<svg width="333" height="332" viewBox="0 0 333 332" fill="none" xmlns="http://www.w3.org/2000/svg">
<g clip-path="url(#clip0)">
<path d="M167 0L48.5 47L0 164.5L50.5 274.5L166.5 332L284.5 283.5L332.5 164.5L282 47L167 0Z" fill="#A04CF3"/>
<path d="M114 55L203.5 18L294 55L331.5 146L294 236L234 261.5L220.5 293.5L130 330.5L38.5 293.5L1 202L38.5 110.5L101 86L114 55Z" fill="#F52A95"/>
<path d="M127.56 115.476L125.362 128H118.209L124.386 92.4531L136.837 92.4775C140.678 92.4775 143.697 93.5436 145.895 95.6758C148.092 97.8079 149.052 100.591 148.775 104.025C148.515 107.508 147.058 110.292 144.405 112.375C141.769 114.458 138.399 115.5 134.298 115.5L127.56 115.476ZM128.561 109.543L134.518 109.592C136.438 109.592 138.033 109.095 139.303 108.103C140.572 107.11 141.329 105.767 141.573 104.074C141.817 102.382 141.541 101.031 140.743 100.021C139.962 99.0124 138.798 98.4753 137.252 98.4102L130.514 98.3857L128.561 109.543Z" fill="white"/>
<path d="M177.877 128H170.724L173.36 112.766H159.566L156.905 128H149.752L155.929 92.4531H163.082L160.567 106.857H174.386L176.876 92.4531H184.029L177.877 128Z" fill="white"/>
<path d="M193.624 115.476L191.427 128H184.273L190.45 92.4531L202.901 92.4775C206.743 92.4775 209.762 93.5436 211.959 95.6758C214.156 97.8079 215.117 100.591 214.84 104.025C214.579 107.508 213.123 110.292 210.47 112.375C207.833 114.458 204.464 115.5 200.362 115.5L193.624 115.476ZM194.625 109.543L200.582 109.592C202.503 109.592 204.098 109.095 205.367 108.103C206.637 107.11 207.394 105.767 207.638 104.074C207.882 102.382 207.605 101.031 206.808 100.021C206.026 99.0124 204.863 98.4753 203.316 98.4102L196.578 98.3857L194.625 109.543Z" fill="white"/>
<path d="M46.2852 187H39.1318L45.2842 151.453H52.4375L46.2852 187Z" fill="white"/>
<path d="M63.5215 160.56L62.9355 163.685C65.0514 161.227 67.6149 160.031 70.626 160.096C73.1162 160.145 74.9554 161.056 76.1436 162.83C77.3317 164.604 77.763 167.062 77.4375 170.203L74.6543 187H67.7695L70.6016 170.13C70.6829 169.495 70.6992 168.917 70.6504 168.396C70.4388 166.736 69.3971 165.882 67.5254 165.833C65.7188 165.768 64.0993 166.606 62.667 168.348L59.3711 187H52.4863L57.0762 160.584L63.5215 160.56Z" fill="white"/>
<path d="M95.3818 179.554C95.6423 178.252 94.7389 177.308 92.6719 176.722L90.4502 176.16C85.193 174.712 82.6377 172.156 82.7842 168.494C82.8656 166.004 83.9642 163.978 86.0801 162.415C88.2122 160.836 90.7757 160.063 93.7705 160.096C96.749 160.128 99.1579 160.918 100.997 162.464C102.836 164.01 103.772 166.069 103.805 168.641L96.9688 168.616C97.0013 166.354 95.8783 165.206 93.5996 165.174C92.5254 165.174 91.5895 165.442 90.792 165.979C90.0107 166.517 89.5306 167.241 89.3516 168.152C89.1074 169.454 90.0921 170.374 92.3057 170.911L93.2822 171.131C95.5283 171.668 97.2454 172.286 98.4336 172.986C99.6217 173.67 100.533 174.524 101.168 175.55C101.819 176.575 102.12 177.804 102.071 179.236C102.022 180.913 101.477 182.378 100.436 183.631C99.4102 184.884 97.9941 185.853 96.1875 186.536C94.3971 187.22 92.5091 187.537 90.5234 187.488C87.5938 187.456 85.1523 186.618 83.1992 184.974C81.2461 183.313 80.2533 181.173 80.2207 178.553L86.7148 178.602C86.7799 181.124 88.1309 182.402 90.7676 182.435C92.0371 182.435 93.0788 182.174 93.8926 181.653C94.7227 181.132 95.2191 180.433 95.3818 179.554Z" fill="white"/>
<path d="M130.636 173.865C130.294 176.632 129.57 179.09 128.463 181.238C127.356 183.387 125.981 184.982 124.337 186.023C122.693 187.065 120.87 187.562 118.868 187.513C116.313 187.448 114.295 186.495 112.813 184.656L110.396 197.156H103.512L109.835 160.584L116.183 160.56L115.719 163.221C117.623 161.072 119.869 160.031 122.457 160.096C125.045 160.161 127.055 161.105 128.487 162.928C129.92 164.734 130.685 167.192 130.782 170.301C130.815 171.31 130.766 172.498 130.636 173.865ZM123.8 173.353L123.946 171.009C123.979 169.43 123.686 168.177 123.067 167.249C122.465 166.321 121.578 165.841 120.406 165.809C118.404 165.743 116.752 166.59 115.45 168.348L113.473 179.236C114.075 180.88 115.369 181.735 117.354 181.8C119.015 181.849 120.398 181.206 121.505 179.871C122.612 178.536 123.377 176.364 123.8 173.353Z" fill="white"/>
<path d="M145.357 187.488C143.046 187.472 140.995 186.91 139.205 185.804C137.431 184.681 136.104 183.151 135.226 181.214C134.347 179.261 134.005 177.112 134.2 174.769L134.273 173.792C134.518 171.22 135.266 168.86 136.52 166.712C137.773 164.563 139.384 162.911 141.354 161.756C143.323 160.584 145.504 160.031 147.896 160.096C151.298 160.161 153.87 161.414 155.611 163.855C157.369 166.281 158.036 169.357 157.613 173.084L157.223 176.087H141.036C140.971 177.796 141.386 179.163 142.281 180.188C143.176 181.214 144.397 181.743 145.943 181.775C148.45 181.84 150.647 180.872 152.535 178.87L155.685 182.776C154.692 184.274 153.259 185.446 151.388 186.292C149.516 187.122 147.506 187.521 145.357 187.488ZM147.555 165.784C146.285 165.752 145.154 166.15 144.161 166.98C143.185 167.811 142.306 169.251 141.524 171.302H150.997L151.144 170.667C151.241 170.016 151.249 169.397 151.168 168.812C151.005 167.868 150.606 167.135 149.972 166.614C149.337 166.077 148.531 165.8 147.555 165.784Z" fill="white"/>
<path d="M170.846 181.824C172.115 181.857 173.173 181.515 174.02 180.799C174.866 180.066 175.419 179.098 175.68 177.894L182.149 177.869C182.035 179.725 181.45 181.393 180.392 182.874C179.35 184.355 177.95 185.511 176.192 186.341C174.451 187.171 172.612 187.562 170.675 187.513C167.468 187.464 164.929 186.357 163.058 184.192C161.186 182.028 160.283 179.147 160.348 175.55L160.421 174.207L160.445 173.938C160.885 169.642 162.333 166.24 164.791 163.733C167.249 161.211 170.284 159.998 173.897 160.096C176.876 160.161 179.236 161.137 180.978 163.025C182.735 164.897 183.598 167.371 183.565 170.447H177.145C177.145 169.031 176.835 167.916 176.217 167.103C175.598 166.289 174.671 165.849 173.434 165.784C170.146 165.687 168.152 168.087 167.452 172.986C167.208 174.76 167.118 176.258 167.184 177.479C167.346 180.327 168.567 181.775 170.846 181.824Z" fill="white"/>
<path d="M198.775 154.09L197.628 160.584H202.022L201.119 165.76H196.725L194.479 178.992C194.381 179.822 194.446 180.457 194.674 180.896C194.902 181.336 195.455 181.572 196.334 181.604C196.594 181.621 197.294 181.58 198.434 181.482L197.945 186.878C196.725 187.285 195.406 187.472 193.99 187.439C191.728 187.407 190.043 186.699 188.937 185.315C187.83 183.932 187.374 182.06 187.569 179.7L189.84 165.76H186.104L187.008 160.584H190.743L191.866 154.09H198.775Z" fill="white"/>
<path d="M208.736 187H201.803L206.393 160.584H213.326L208.736 187ZM207.198 153.87C207.166 152.78 207.524 151.876 208.272 151.16C209.021 150.444 209.924 150.086 210.982 150.086C212.024 150.053 212.927 150.371 213.692 151.038C214.457 151.705 214.856 152.568 214.889 153.626C214.921 154.635 214.579 155.514 213.863 156.263C213.163 157.011 212.244 157.402 211.104 157.435C210.079 157.467 209.176 157.158 208.395 156.507C207.63 155.856 207.231 154.977 207.198 153.87Z" fill="white"/>
<path d="M229.708 160.096C232.035 160.128 234.037 160.73 235.714 161.902C237.407 163.058 238.644 164.661 239.425 166.712C240.222 168.746 240.507 171.009 240.279 173.499C239.905 177.698 238.44 181.1 235.885 183.704C233.346 186.292 230.204 187.553 226.461 187.488C224.166 187.456 222.18 186.87 220.504 185.73C218.827 184.575 217.59 182.98 216.793 180.945C215.995 178.911 215.711 176.665 215.938 174.207C216.362 169.845 217.843 166.378 220.382 163.807C222.921 161.235 226.03 159.998 229.708 160.096ZM222.75 176.722C222.783 178.284 223.149 179.521 223.849 180.433C224.549 181.328 225.533 181.792 226.803 181.824C228.919 181.889 230.579 180.921 231.783 178.919C232.988 176.901 233.549 174.256 233.468 170.984C233.403 169.422 233.02 168.177 232.32 167.249C231.637 166.305 230.652 165.817 229.366 165.784C227.315 165.719 225.672 166.688 224.435 168.689C223.214 170.675 222.652 173.353 222.75 176.722Z" fill="white"/>
<path d="M253.17 160.56L252.584 163.685C254.7 161.227 257.263 160.031 260.274 160.096C262.765 160.145 264.604 161.056 265.792 162.83C266.98 164.604 267.411 167.062 267.086 170.203L264.303 187H257.418L260.25 170.13C260.331 169.495 260.348 168.917 260.299 168.396C260.087 166.736 259.046 165.882 257.174 165.833C255.367 165.768 253.748 166.606 252.315 168.348L249.02 187H242.135L246.725 160.584L253.17 160.56Z" fill="white"/>
<path d="M285.03 179.554C285.291 178.252 284.387 177.308 282.32 176.722L280.099 176.16C274.841 174.712 272.286 172.156 272.433 168.494C272.514 166.004 273.613 163.978 275.729 162.415C277.861 160.836 280.424 160.063 283.419 160.096C286.397 160.128 288.806 160.918 290.646 162.464C292.485 164.01 293.421 166.069 293.453 168.641L286.617 168.616C286.65 166.354 285.527 165.206 283.248 165.174C282.174 165.174 281.238 165.442 280.44 165.979C279.659 166.517 279.179 167.241 279 168.152C278.756 169.454 279.741 170.374 281.954 170.911L282.931 171.131C285.177 171.668 286.894 172.286 288.082 172.986C289.27 173.67 290.182 174.524 290.816 175.55C291.467 176.575 291.769 177.804 291.72 179.236C291.671 180.913 291.126 182.378 290.084 183.631C289.059 184.884 287.643 185.853 285.836 186.536C284.046 187.22 282.158 187.537 280.172 187.488C277.242 187.456 274.801 186.618 272.848 184.974C270.895 183.313 269.902 181.173 269.869 178.553L276.363 178.602C276.428 181.124 277.779 182.402 280.416 182.435C281.686 182.435 282.727 182.174 283.541 181.653C284.371 181.132 284.868 180.433 285.03 179.554Z" fill="white"/>
<path d="M95.0688 229.435H84.7607V238.426H96.6128V240H82.8989V217.961H96.5371V219.55H84.7607V227.86H95.0688V229.435Z" fill="white"/>
<path d="M112.446 233.824H102.44L100.17 240H98.2173L106.558 217.961H108.329L116.669 240H114.731L112.446 233.824ZM103.016 232.235H111.855L107.436 220.231L103.016 232.235Z" fill="white"/>
<path d="M139.631 229.435H129.323V238.426H141.175V240H127.461V217.961H141.1V219.55H129.323V227.86H139.631V229.435Z" fill="white"/>
<path d="M149.833 230.267L154.253 223.622H156.403L150.848 231.66L156.645 240H154.511L149.849 233.067L145.187 240H143.052L148.834 231.66L143.279 223.622H145.414L149.833 230.267Z" fill="white"/>
<path d="M162.579 219.429V223.622H165.969V225.105H162.579V236.019C162.579 236.927 162.74 237.603 163.063 238.047C163.396 238.491 163.946 238.713 164.713 238.713C165.016 238.713 165.505 238.663 166.181 238.562L166.257 240.045C165.783 240.217 165.137 240.303 164.319 240.303C163.078 240.303 162.175 239.944 161.61 239.228C161.045 238.501 160.762 237.437 160.762 236.034V225.105H157.75V223.622H160.762V219.429H162.579Z" fill="white"/>
<path d="M176.065 240.303C174.673 240.303 173.411 239.96 172.281 239.273C171.161 238.587 170.288 237.634 169.663 236.413C169.037 235.181 168.724 233.804 168.724 232.28V231.629C168.724 230.055 169.027 228.637 169.632 227.376C170.248 226.115 171.101 225.126 172.19 224.409C173.28 223.683 174.461 223.319 175.732 223.319C177.72 223.319 179.295 224 180.455 225.363C181.626 226.715 182.211 228.567 182.211 230.918V231.932H170.525V232.28C170.525 234.137 171.055 235.686 172.115 236.927C173.184 238.158 174.527 238.774 176.141 238.774C177.11 238.774 177.963 238.597 178.699 238.244C179.446 237.891 180.122 237.326 180.728 236.549L181.863 237.412C180.531 239.339 178.598 240.303 176.065 240.303ZM175.732 224.863C174.37 224.863 173.22 225.363 172.281 226.362C171.353 227.361 170.788 228.703 170.586 230.388H180.41V230.191C180.359 228.617 179.91 227.336 179.062 226.347C178.215 225.358 177.105 224.863 175.732 224.863Z" fill="white"/>
<path d="M187.463 223.622L187.524 226.422C188.139 225.413 188.906 224.646 189.825 224.122C190.743 223.587 191.757 223.319 192.867 223.319C194.623 223.319 195.93 223.814 196.788 224.803C197.645 225.792 198.079 227.275 198.089 229.253V240H196.288V229.238C196.278 227.775 195.965 226.685 195.35 225.968C194.744 225.252 193.77 224.894 192.428 224.894C191.308 224.894 190.314 225.247 189.446 225.953C188.589 226.649 187.953 227.593 187.539 228.784V240H185.738V223.622H187.463Z" fill="white"/>
<path d="M202.055 231.66C202.055 229.117 202.62 227.093 203.75 225.59C204.891 224.076 206.435 223.319 208.382 223.319C210.592 223.319 212.278 224.192 213.438 225.938V216.75H215.239V240H213.544L213.468 237.82C212.308 239.475 210.602 240.303 208.352 240.303C206.465 240.303 204.941 239.546 203.781 238.032C202.63 236.508 202.055 234.455 202.055 231.872V231.66ZM203.887 231.978C203.887 234.066 204.306 235.716 205.143 236.927C205.981 238.128 207.161 238.729 208.685 238.729C210.915 238.729 212.5 237.745 213.438 235.777V228.087C212.5 225.958 210.925 224.894 208.715 224.894C207.192 224.894 206.006 225.494 205.158 226.695C204.311 227.886 203.887 229.646 203.887 231.978Z" fill="white"/>
<path d="M226.35 240.303C224.957 240.303 223.696 239.96 222.565 239.273C221.445 238.587 220.572 237.634 219.947 236.413C219.321 235.181 219.008 233.804 219.008 232.28V231.629C219.008 230.055 219.311 228.637 219.917 227.376C220.532 226.115 221.385 225.126 222.475 224.409C223.564 223.683 224.745 223.319 226.017 223.319C228.005 223.319 229.579 224 230.739 225.363C231.91 226.715 232.495 228.567 232.495 230.918V231.932H220.81V232.28C220.81 234.137 221.339 235.686 222.399 236.927C223.469 238.158 224.811 238.774 226.425 238.774C227.394 238.774 228.247 238.597 228.983 238.244C229.73 237.891 230.406 237.326 231.012 236.549L232.147 237.412C230.815 239.339 228.882 240.303 226.35 240.303ZM226.017 224.863C224.654 224.863 223.504 225.363 222.565 226.362C221.637 227.361 221.072 228.703 220.87 230.388H230.694V230.191C230.643 228.617 230.194 227.336 229.347 226.347C228.499 225.358 227.389 224.863 226.017 224.863Z" fill="white"/>
<path d="M235.295 231.66C235.295 229.117 235.861 227.093 236.991 225.59C238.131 224.076 239.675 223.319 241.623 223.319C243.833 223.319 245.518 224.192 246.678 225.938V216.75H248.479V240H246.784L246.708 237.82C245.548 239.475 243.843 240.303 241.592 240.303C239.705 240.303 238.181 239.546 237.021 238.032C235.871 236.508 235.295 234.455 235.295 231.872V231.66ZM237.127 231.978C237.127 234.066 237.546 235.716 238.383 236.927C239.221 238.128 240.402 238.729 241.925 238.729C244.155 238.729 245.74 237.745 246.678 235.777V228.087C245.74 225.958 244.166 224.894 241.956 224.894C240.432 224.894 239.246 225.494 238.398 226.695C237.551 227.886 237.127 229.646 237.127 231.978Z" fill="white"/>
</g>
<defs>
<clipPath id="clip0">
<rect width="332.5" height="332" fill="white"/>
</clipPath>
</defs>
</svg>
